<svg width="32" height="32" viewBox="0 0 32 32" fill="none" xmlns="http://www.w3.org/2000/svg">
<path d="M22 3H10C6.14 3 3 6.14 3 10V22C3 25.86 6.14 29 10 29H22C25.86 29 29 25.86 29 22V10C29 6.14 25.86 3 22 3ZM27 22C27 24.757 24.757 27 22 27H10C7.243 27 5 24.757 5 22V10C5 7.243 7.243 5 10 5H22C24.757 5 27 7.243 27 10V22ZM16 10C12.691 10 10 12.691 10 16C10 19.309 12.691 22 16 22C19.309 22 22 19.309 22 16C22 12.691 19.309 10 16 10ZM16 20C13.794 20 12 18.206 12 16C12 13.794 13.794 12 16 12C18.206 12 20 13.794 20 16C20 18.206 18.206 20 16 20ZM24 9.5C24 10.328 23.328 11 22.5 11C21.672 11 21 10.328 21 9.5C21 8.672 21.672 8 22.5 8C23.328 8 24 8.672 24 9.5Z" fill="#8257E6"/>
</svg>
