<svg width="32" height="32" viewBox="0 0 32 32" fill="none" xmlns="http://www.w3.org/2000/svg">
<path d="M12.9349 2.4687C12.9346 3.12311 12.6743 3.75059 12.2114 4.2131C11.7484 4.6756 11.1207 4.93525 10.4662 4.93493C9.81182 4.9346 9.18434 4.67432 8.72183 4.21135C8.25933 3.74838 7.99968 3.12064 8 2.46623C8.00033 1.81182 8.26061 1.18434 8.72358 0.72183C9.18655 0.25933 9.81429 -0.000319705 10.4687 2.95432e-07C11.1231 0.000330295 11.7506 0.26061 12.2131 0.72358C12.6756 1.18655 12.9353 1.81429 12.9349 2.4687ZM13.009 6.76205H8.07403V22.2083H13.009V6.76205ZM20.8062 6.76205H15.8959V22.2083H20.7568V14.1028C20.7568 9.58735 26.6416 9.16785 26.6416 14.1028V22.2083H31.5149V12.4249C31.5149 4.81279 22.8048 5.09655 20.7568 8.83475L20.8062 6.76205Z" fill="#8257E6"/>
</svg>
