<svg width="32" height="32" viewBox="0 0 32 32" fill="none" xmlns="http://www.w3.org/2000/svg">
<g clip-path="url(#clip0_116_7)">
<path d="M28.0913 5.13794H3.90873C1.75355 5.13794 0 6.89149 0 9.04667V22.9535C0 25.1087 1.75355 26.8623 3.90873 26.8623H28.0913C30.2464 26.8623 32 25.1087 32 22.9535V9.0471C32.0004 6.89149 30.2469 5.13794 28.0913 5.13794ZM26.1813 7.68794L16 14.2474L5.81868 7.68794H26.1813ZM28.0913 24.3127H3.90873C3.15945 24.3127 2.55 23.7028 2.55 22.954V9.11935L15.2133 17.2624C15.2303 17.273 15.2486 17.2802 15.266 17.29C15.2843 17.3002 15.303 17.31 15.3217 17.3193C15.4199 17.3699 15.521 17.4107 15.6243 17.4375C15.6349 17.4404 15.6455 17.4417 15.6562 17.4443C15.7696 17.471 15.8844 17.4876 15.9991 17.4876H16C16.0008 17.4876 16.0017 17.4876 16.0017 17.4876C16.1164 17.4876 16.2312 17.4715 16.3447 17.4443C16.3553 17.4417 16.3659 17.4404 16.3765 17.4375C16.4798 17.4107 16.5805 17.3699 16.6791 17.3193C16.6978 17.31 16.7165 17.3002 16.7348 17.29C16.7522 17.2802 16.7705 17.273 16.7875 17.2624L29.4508 9.11935V22.9535C29.4504 23.7028 28.8405 24.3127 28.0913 24.3127Z" fill="#8257E6"/>
</g>
<defs>
<clipPath id="clip0_116_7">
<rect width="32" height="32" fill="white"/>
</clipPath>
</defs>
</svg>
