<svg width="64" height="64" viewBox="0 0 64 64" fill="none" xmlns="http://www.w3.org/2000/svg">
<path d="M32.79 37.5722C32.7903 44.8388 32.7905 52.0257 32.7912 59.2127C32.7912 60.8889 32.4282 61.2363 30.6348 61.2343C29.7978 61.2331 28.9597 61.2223 28.1239 61.1838C27.4601 61.1532 27.0543 60.8219 26.9865 60.1966C26.9493 59.8546 26.915 59.5104 26.915 59.1672C26.9115 45.695 26.9115 32.2228 26.9147 18.7505C26.9148 18.4071 26.9462 18.0632 26.9761 17.7206C27.0406 16.983 27.5475 16.6245 28.2883 16.593C29.2971 16.55 30.311 16.5562 31.3202 16.5949C32.0601 16.6234 32.5718 16.9826 32.6922 17.6924C32.7494 18.0303 32.7857 18.3749 32.786 18.7164C32.7916 24.9752 32.79 31.2339 32.79 37.5722Z" fill="#A7A1EF"/>
<path d="M44.5214 43.6218C44.5204 45.7968 44.5348 47.8924 44.5131 49.9876C44.4983 51.4032 44.03 51.8116 42.4706 51.8425C41.8353 51.855 41.1984 51.8622 40.5638 51.8391C39.2172 51.7901 38.688 51.2934 38.6428 50.0683C38.6348 49.8562 38.6386 49.6438 38.6386 49.4316C38.6384 37.0449 38.6379 24.6581 38.639 12.2713C38.6391 10.0865 38.9095 9.83728 41.2553 9.83696C41.5732 9.83691 41.891 9.83688 42.2089 9.83696C44.2201 9.83757 44.5167 10.0939 44.5178 11.9519C44.5238 22.4821 44.5212 33.0121 44.5214 43.6218Z" fill="#A7A1EF"/>
<path d="M21.0243 30.408C21.0243 34.5699 21.0257 38.6524 21.0236 42.7347C21.0228 44.6468 20.5633 45.071 18.4983 45.0827C15.2035 45.1011 15.0871 44.9949 15.0871 41.9709C15.0871 33.4616 15.087 24.9521 15.0875 16.4428C15.0875 16.1247 15.0712 15.8049 15.1005 15.4889C15.2097 14.3124 15.6126 13.9597 16.907 13.941C17.8304 13.9277 18.7554 13.9353 19.6779 13.97C20.3226 13.9942 20.7713 14.2878 20.8618 14.9175C20.9256 15.3612 21.0162 15.8072 21.0172 16.2523C21.0285 20.9443 21.0243 25.6364 21.0243 30.408Z" fill="#A8A2EF"/>
<path d="M50.4845 29.3292C50.5377 27.739 50.8499 27.4598 52.5085 27.4525C53.2309 27.4493 53.954 27.4342 54.6755 27.4557C55.7566 27.4878 56.1879 27.8479 56.3413 28.821C56.3782 29.0557 56.3709 29.2973 56.3709 29.5357C56.3721 35.3706 56.3737 41.2058 56.3668 47.0408C56.3664 47.3821 56.3251 47.7287 56.2525 48.0637C56.1248 48.6521 55.7243 49.0047 55.0561 49.0167C53.9596 49.0362 52.862 49.0432 51.7655 49.0249C51.0162 49.0124 50.5967 48.6256 50.5296 47.9408C50.4961 47.5983 50.4857 47.2528 50.4855 46.9088C50.4831 41.0738 50.484 35.2387 50.4845 29.3292Z" fill="#A7A1EE"/>
<path d="M3.31649 36.9351C3.31707 35.2127 3.3013 33.5697 3.32314 31.927C3.34208 30.5034 3.75163 30.1487 5.29264 30.1443C6.12975 30.1419 6.96691 30.1459 7.80402 30.1498C8.5062 30.153 8.94867 30.4655 9.0797 31.1025C9.14332 31.4117 9.18497 31.7299 9.18547 32.0442C9.19223 36.2308 9.19071 40.4174 9.18947 44.604C9.18908 45.9739 8.73983 46.396 7.23586 46.4267C6.6011 46.4398 5.96556 46.4393 5.33074 46.4275C3.77929 46.3987 3.32335 45.9816 3.31908 44.5666C3.31152 42.0492 3.31667 39.5321 3.31649 36.9351Z" fill="#A6A0EE"/>
<path d="M16.7236 49.0564C17.7247 49.0575 18.648 49.0382 19.5688 49.0744C20.2703 49.1018 20.826 49.3979 20.8668 50.1057C20.9287 51.1816 20.9556 52.2618 20.9266 53.3385C20.9057 54.1146 20.2898 54.4552 19.5391 54.4946C18.5337 54.5475 17.5194 54.5486 16.5147 54.49C15.7566 54.4459 15.194 54.0727 15.1627 53.3004C15.1232 52.3241 15.0838 51.3443 15.1315 50.3697C15.1723 49.5375 15.7041 49.0722 16.7236 49.0564Z" fill="#A6A0EE"/>
<path d="M29.4944 7.18281C30.0685 7.18292 30.5583 7.17635 31.0479 7.18453C32.219 7.2041 32.691 7.56724 32.7676 8.63197C32.8281 9.47432 32.8177 10.3251 32.7699 11.1688C32.7135 12.1645 32.2825 12.5378 31.199 12.5667C30.2206 12.5929 29.2405 12.5782 28.2614 12.5642C27.4822 12.5531 26.9979 12.1826 26.9632 11.4626C26.915 10.4603 26.8826 9.4526 26.9422 8.45218C26.9953 7.56236 27.4733 7.21789 28.4595 7.18839C28.7762 7.17891 29.0932 7.18425 29.4944 7.18281Z" fill="#A59FEC"/>
<path d="M41.2593 55.3452C41.8334 55.3453 42.3232 55.3387 42.8128 55.3469C43.9839 55.3665 44.4558 55.7296 44.5325 56.7943C44.593 57.6367 44.5826 58.4874 44.5348 59.3312C44.4784 60.3269 44.0474 60.7001 42.9639 60.7291C41.9855 60.7552 41.0054 60.7405 40.0263 60.7265C39.247 60.7154 38.7628 60.3449 38.7281 59.625C38.6799 58.6227 38.6475 57.615 38.7071 56.6145C38.7602 55.7247 39.2382 55.3802 40.2244 55.3507C40.5411 55.3413 40.8581 55.3466 41.2593 55.3452Z" fill="#A59FEC"/>
<path d="M8.78635 21.0789C9.45851 22.5276 9.26484 23.9772 8.98917 25.3969C8.9327 25.6878 8.287 26.0494 7.88291 26.0841C6.79831 26.1772 5.69558 26.1454 4.60375 26.0952C3.93857 26.0648 3.44221 25.7088 3.41016 25.0556C3.35846 24.0026 3.30714 22.9414 3.40147 21.8948C3.43474 21.5257 3.84411 20.9375 4.17048 20.881C5.68676 20.6183 7.23818 20.429 8.78635 21.0789Z" fill="#A6A0ED"/>
<path d="M55.916 18.4177C56.6691 19.8309 56.4517 21.2482 56.1402 22.6428C56.082 22.904 55.5724 23.2436 55.2503 23.2634C54.0204 23.3385 52.7805 23.3318 51.5475 23.2849C50.9843 23.2634 50.5693 22.9204 50.5582 22.3585C50.5363 21.251 50.52 20.1411 50.5889 19.0368C50.6064 18.7557 50.9014 18.3089 51.155 18.2499C52.7264 17.8837 54.3169 17.7449 55.916 18.4177Z" fill="#A59FEC"/>
</svg>
