<svg width="32" height="32" viewBox="0 0 32 32" fill="none" xmlns="http://www.w3.org/2000/svg">
<g clip-path="url(#clip0_115_2)">
<path d="M23.6782 18.3877C23.6159 18.3577 21.283 17.209 20.8685 17.0598C20.6992 16.999 20.5179 16.9397 20.3251 16.9397C20.0101 16.9397 19.7455 17.0967 19.5393 17.405C19.3063 17.7514 18.6008 18.576 18.3829 18.8224C18.3544 18.8549 18.3155 18.8937 18.2923 18.8937C18.2714 18.8937 17.9103 18.7451 17.801 18.6976C15.2985 17.6105 13.399 14.9964 13.1385 14.5556C13.1013 14.4922 13.0997 14.4634 13.0994 14.4634C13.1086 14.4298 13.1927 14.3455 13.2362 14.302C13.3632 14.1762 13.5009 14.0105 13.6341 13.8502C13.6971 13.7743 13.7603 13.6982 13.8223 13.6265C14.0156 13.4017 14.1016 13.2271 14.2014 13.025L14.2536 12.9199C14.4971 12.4361 14.2891 12.0278 14.2219 11.8959C14.1668 11.7856 13.1817 9.40824 13.077 9.15847C12.8251 8.55577 12.4924 8.27515 12.0299 8.27515C11.987 8.27515 12.0299 8.27515 11.85 8.28273C11.6309 8.29198 10.4376 8.44907 9.91003 8.78164C9.35055 9.13437 8.40405 10.2587 8.40405 12.2361C8.40405 14.0157 9.5334 15.696 10.0183 16.3351C10.0303 16.3512 10.0525 16.3839 10.0846 16.4309C11.9415 19.1428 14.2564 21.1525 16.6031 22.09C18.8623 22.9924 19.9322 23.0968 20.5404 23.0968H20.5405C20.7961 23.0968 21.0006 23.0767 21.1811 23.0589L21.2956 23.048C22.0761 22.9788 23.7912 22.0901 24.1813 21.006C24.4886 20.152 24.5697 19.219 24.3652 18.8804C24.2251 18.6502 23.9838 18.5344 23.6782 18.3877Z" fill="#8257E6"/>
<path d="M16.284 0C7.61743 0 0.566625 6.99782 0.566625 15.5993C0.566625 18.3813 1.31114 21.1045 2.72153 23.4879L0.0220019 31.451C-0.0282839 31.5995 0.00911872 31.7636 0.118937 31.8754C0.19821 31.9564 0.305742 32 0.41556 32C0.457638 32 0.500028 31.9937 0.541378 31.9805L8.84476 29.3419C11.117 30.5559 13.6851 31.1968 16.2841 31.1968C24.9499 31.1969 32 24.1998 32 15.5993C32 6.99782 24.9499 0 16.284 0ZM16.284 27.9474C13.8384 27.9474 11.4697 27.2412 9.43353 25.9051C9.36507 25.8602 9.28559 25.8371 9.20559 25.8371C9.1633 25.8371 9.12091 25.8435 9.07966 25.8566L4.92018 27.1788L6.26294 23.2174C6.30637 23.0891 6.28465 22.9477 6.20465 22.8384C4.65411 20.7198 3.83447 18.2166 3.83447 15.5993C3.83447 8.78961 9.4193 3.24945 16.2839 3.24945C23.1477 3.24945 28.7319 8.78961 28.7319 15.5993C28.732 22.4081 23.1479 27.9474 16.284 27.9474Z" fill="#8257E6"/>
</g>
<defs>
<clipPath id="clip0_115_2">
<rect width="32" height="32" fill="white"/>
</clipPath>
</defs>
</svg>
